<svg xmlns:xlink="http://www.w3.org/1999/xlink">

    <symbol viewBox="0 0 60 60" id="chat" xmlns="http://www.w3.org/2000/svg">
        <defs>
            <g id="chat_icon">
                <path xmlns="http://www.w3.org/2000/svg" d="M26,9.586C11.664,9.586,0,20.09,0,33c0,4.499,1.418,8.856,4.106,12.627c-0.51,5.578-1.86,9.712-3.813,11.666   c-0.304,0.304-0.38,0.768-0.188,1.153C0.276,58.789,0.625,59,1,59c0.046,0,0.093-0.003,0.14-0.01   c0.349-0.049,8.432-1.213,14.317-4.585c3.33,1.333,6.874,2.009,10.544,2.009c14.336,0,26-10.503,26-23.414S40.337,9.586,26,9.586z"/>
                <path xmlns="http://www.w3.org/2000/svg" d="M55.894,37.042C58.582,33.27,60,28.912,60,24.414C60,11.503,48.337,1,34,1c-8.246,0-15.968,3.592-20.824,9.42   C17.021,8.614,21.38,7.586,26,7.586c15.439,0,28,11.4,28,25.414c0,5.506-1.945,10.604-5.236,14.77   c4.946,1.887,9.853,2.6,10.096,2.634c0.047,0.006,0.094,0.01,0.14,0.01c0.375,0,0.724-0.211,0.895-0.554   c0.192-0.385,0.116-0.849-0.188-1.153C57.753,46.753,56.403,42.619,55.894,37.042z"/>
            </g>
        </defs>
        <use xlink:href="#chat_icon" transform="translate(0 0 60 60)"/>
    </symbol>


    <symbol viewBox="0 0 357.102 357.102" id="time" xmlns="http://www.w3.org/2000/svg">
        <defs>
            <g id="time_icon">
                <path xmlns="http://www.w3.org/2000/svg" d="M192.349,13.8c-90.484,0-164.387,73.614-164.741,164.096l-0.007,1.74c0,3.442-2.359,5.117-7.013,5.117H5.91   c-2.831,0-4.688,0.974-5.517,2.756c-1.241,2.666,0.784,5.613,1.616,6.64l39.939,63.027l0.243,0.331   c1.074,1.224,2.489,1.929,3.882,1.929c1.134,0,2.782-0.437,4.237-2.596l39.441-62.379c0.918-1.075,3.102-4.123,1.872-6.864   c-0.825-1.84-2.751-2.844-5.724-2.844H71.05c-4.432,0-6.998-1.062-6.998-6.853c0-70.426,57.554-127.686,128.297-127.686   c70.749,0,128.308,57.574,128.308,128.321c0,70.748-57.559,128.314-128.308,128.314c-18.913,0-37.12-4.01-54.114-11.928   c-2.433-1.134-5.018-1.707-7.684-1.707c-7.063,0-13.552,4.135-16.533,10.532c-4.241,9.11-0.283,19.972,8.823,24.214   c21.852,10.18,45.237,15.342,69.508,15.342c90.845,0,164.753-73.907,164.753-164.751C357.102,87.707,283.194,13.8,192.349,13.8z"/>
                <path xmlns="http://www.w3.org/2000/svg" d="M186.553,98.752c-8.284,0-15,6.716-15,15v63c0,7.883,4.452,16.048,11.081,20.319l54.797,35.291   c2.513,1.619,5.326,2.392,8.108,2.392c4.929-0.001,9.757-2.428,12.624-6.88c4.486-6.965,2.477-16.247-4.488-20.732l-52.122-33.569   v-59.82C201.553,105.468,194.837,98.752,186.553,98.752z"/>            </g>
        </defs>
        <use xlink:href="#time_icon" transform="translate(0 0 357.102 357.102)"/>
    </symbol>

    <symbol viewBox="0 0 511.626 511.626" id="list" xmlns="http://www.w3.org/2000/svg">
        <defs>
            <g id="list_icon">
                <path xmlns="http://www.w3.org/2000/svg" d="M54.818,200.999c-15.23,0-28.171,5.327-38.832,15.987C5.33,227.642,0,240.583,0,255.813c0,15.223,5.33,28.172,15.99,38.83    c10.66,10.656,23.604,15.984,38.832,15.984c15.225,0,28.167-5.328,38.828-15.984c10.657-10.657,15.987-23.606,15.987-38.83    c0-15.23-5.33-28.171-15.99-38.828C82.989,206.329,70.046,200.999,54.818,200.999z"/>
                <path xmlns="http://www.w3.org/2000/svg" d="M54.821,54.817c-15.23,0-28.171,5.33-38.832,15.987C5.333,81.464,0.003,94.405,0.003,109.632    c0,15.229,5.327,28.171,15.986,38.831c10.66,10.657,23.604,15.985,38.832,15.985c15.225,0,28.167-5.329,38.828-15.985    c10.657-10.66,15.987-23.603,15.987-38.831c0-15.227-5.33-28.168-15.987-38.828C82.993,60.147,70.051,54.817,54.821,54.817z"/>
                <path xmlns="http://www.w3.org/2000/svg" d="M54.821,347.18c-15.23,0-28.175,5.325-38.832,15.981C5.333,373.824,0.003,386.767,0.003,401.989    c0,15.235,5.327,28.171,15.986,38.834c10.66,10.657,23.604,15.985,38.832,15.985c15.225,0,28.167-5.328,38.828-15.985    c10.657-10.663,15.987-23.599,15.987-38.834c0-15.223-5.33-28.172-15.987-38.828C82.993,352.505,70.051,347.18,54.821,347.18z"/>
                <path xmlns="http://www.w3.org/2000/svg" d="M508.917,75.8c-1.813-1.803-3.949-2.708-6.427-2.708H155.313c-2.473,0-4.615,0.902-6.423,2.708    c-1.807,1.812-2.712,3.949-2.712,6.423v54.821c0,2.475,0.905,4.611,2.712,6.424c1.809,1.805,3.951,2.708,6.423,2.708H502.49    c2.478,0,4.616-0.9,6.427-2.708c1.81-1.812,2.71-3.949,2.71-6.424V82.224C511.626,79.75,510.723,77.609,508.917,75.8z"/>
                <path xmlns="http://www.w3.org/2000/svg" d="M502.49,219.271H155.313c-2.473,0-4.615,0.9-6.423,2.712c-1.807,1.807-2.712,3.949-2.712,6.423v54.819    c0,2.472,0.905,4.613,2.712,6.421c1.809,1.813,3.951,2.714,6.423,2.714H502.49c2.478,0,4.616-0.9,6.427-2.714    c1.81-1.808,2.71-3.949,2.71-6.421v-54.819c0-2.474-0.903-4.62-2.71-6.423C507.103,220.175,504.967,219.271,502.49,219.271z"/>
                <path xmlns="http://www.w3.org/2000/svg" d="M502.49,365.447H155.313c-2.473,0-4.615,0.903-6.423,2.714c-1.807,1.81-2.712,3.949-2.712,6.42V429.4    c0,2.478,0.905,4.616,2.712,6.427c1.809,1.807,3.951,2.707,6.423,2.707H502.49c2.478,0,4.616-0.9,6.427-2.707    c1.81-1.811,2.71-3.949,2.71-6.427v-54.819c0-2.471-0.903-4.617-2.71-6.42C507.103,366.357,504.967,365.447,502.49,365.447z"/>
            </g>
        </defs>
        <use xlink:href="#list_icon" transform="translate(0 0 511.626 511.626)"/>
    </symbol>
    <symbol viewBox="0 0 44 44" id="tick" xmlns="http://www.w3.org/2000/svg">
        <defs>
            <g id="tick_icon">
                <path xmlns="http://www.w3.org/2000/svg" d="m22,0c-12.2,0-22,9.8-22,22s9.8,22 22,22 22-9.8 22-22-9.8-22-22-22zm12.7,15.1l0,0-16,16.6c-0.2,0.2-0.4,0.3-0.7,0.3-0.3,0-0.6-0.1-0.7-0.3l-7.8-8.4-.2-.2c-0.2-0.2-0.3-0.5-0.3-0.7s0.1-0.5 0.3-0.7l1.4-1.4c0.4-0.4 1-0.4 1.4,0l.1,.1 5.5,5.9c0.2,0.2 0.5,0.2 0.7,0l13.4-13.9h0.1c0.4-0.4 1-0.4 1.4,0l1.4,1.4c0.4,0.3 0.4,0.9 0,1.3z"/>
            </g>
        </defs>
        <use xlink:href="#tick_icon" transform="translate(0 0 44 44)"/>
    </symbol>
    <symbol viewBox="0 0 129 129" id="visible" xmlns="http://www.w3.org/2000/svg">
        <defs>
            <g id="visible_icon">
                <path xmlns="http://www.w3.org/2000/svg"
                      d="m64.7,36.3c-28.4,0-55.9,27.1-57,28.3-0.8,0.8-1.2,1.8-1.2,2.9s0.4,2.1 1.2,2.9c1.2,1.2 28.6,28.3 57,28.3s55.9-27.1 57-28.3c0.8-0.8 1.2-1.8 1.2-2.9s-0.4-2.1-1.2-2.9c-1.1-1.2-28.5-28.3-57-28.3zm0,54.1c-19.9,0-40.4-16.2-48.1-23 7.7-6.8 28.2-23 48.1-23s40.4,16.2 48.1,23c-7.7,6.8-28.2,23-48.1,23z"/>
                <path xmlns="http://www.w3.org/2000/svg"
                      d="m50,67.4c0,8.1 6.6,14.8 14.8,14.8s14.8-6.6 14.8-14.8-6.6-14.8-14.8-14.8-14.8,6.7-14.8,14.8zm21.3,0c0,3.6-2.9,6.6-6.6,6.6-3.6,0-6.6-2.9-6.6-6.6s2.9-6.6 6.6-6.6c3.6,0.1 6.6,3 6.6,6.6z"/>
            </g>
        </defs>
        <use xlink:href="#visible_icon" transform="translate(0 0 129 129)"/>
    </symbol>

</svg>

